<svg id="bold" enable-background="new 0 0 24 24" height="512" viewBox="0 0 24 24" width="512" xmlns="http://www.w3.org/2000/svg"><path d="m14.25 14.25h-1.25v-3.25c0-.552-.448-1-1-1s-1 .448-1 1v3.25h-1.25c-.666 0-1.001.809-.53 1.28l2.25 2.25c.146.147.338.22.53.22s.384-.073.53-.22l2.25-2.25c.471-.471.136-1.28-.53-1.28z"/><path d="m15 22h-6c-1.103 0-2-.897-2-2v-1c0-.552.448-1 1-1s1 .448 1 1v1h6v-1c0-.552.448-1 1-1s1 .448 1 1v1c0 1.103-.897 2-2 2z"/><path d="m21 20.25h-1.5c-.553 0-1-.448-1-1s.447-1 1-1h1.5c.552 0 1-.449 1-1v-10.25c0-.551-.448-1-1-1h-10.75c-.266 0-.52-.105-.707-.293l-1.707-1.707h-4.836c-.552 0-1 .449-1 1v12.25c0 .551.448 1 1 1h1.5c.553 0 1 .448 1 1s-.447 1-1 1h-1.5c-1.654 0-3-1.346-3-3v-12.25c0-1.654 1.346-3 3-3h5.25c.266 0 .52.105.707.293l1.707 1.707h10.336c1.654 0 3 1.346 3 3v10.25c0 1.654-1.346 3-3 3z"/></svg>