<?xml version="1.0" encoding="utf-8"?>
<!-- Generator: Adobe Illustrator 24.1.1, SVG Export Plug-In . SVG Version: 6.00 Build 0)  -->
<svg version="1.1" id="Layer_1" xmlns="http://www.w3.org/2000/svg" xmlns:xlink="http://www.w3.org/1999/xlink" x="0px" y="0px"
	 viewBox="0 0 256.6 321.7" style="enable-background:new 0 0 256.6 321.7;" xml:space="preserve">
<style type="text/css">
	.st0{fill:#272C2F;}
	.st1{fill:#202223;}
	.st2{fill:#3B3F40;}
	.st3{fill:none;stroke:#FFFFFF;stroke-width:2;stroke-linecap:round;stroke-linejoin:round;stroke-miterlimit:10;}
	.st4{fill:none;stroke:#FFFFFF;stroke-width:2;stroke-linecap:round;stroke-miterlimit:10;}
</style>
<path class="st0" d="M73,316H3.5c8.1-6.2,13.4-16,13.4-27.1v-84.5c3.1,9,7.3,17.6,12.4,25.5c8.2,12.6,18.7,23.5,31,32v27.5
	C60.3,300.2,65.2,309.8,73,316z"/>
<path class="st0" d="M60.3,18.4v55.5c-20,14-35.3,34-43.4,57.5V53.6C25.6,35.6,42,23.1,60.3,18.4z"/>
<path class="st0" d="M237.4,201.7v80.7c-7.1,14.8-20.5,28.1-43.6,33.4v-53.5C214.3,247.6,229.9,226.4,237.4,201.7z"/>
<path class="st0" d="M249.8,16.2c-6.2,4.7-10.7,11.5-12.4,19.4c-0.6,2.5-0.3,4.8-0.3,7.5s-0.2,5.4,0.3,7.8v83.3
	c-3.4-11.2-8.4-21.6-14.8-31.1c-7.8-11.5-17.5-21.4-28.8-29.5V45.7c0.1-1,0.1-2,0.1-3.1c0-1,0-2.1-0.1-3.1
	c-0.8-9.5-5.5-17.8-12.5-23.4H249.8z"/>
<path class="st1" d="M243.1,167.9c0,7.2-0.6,14.2-1.9,21c-0.8,4.4-1.9,8.7-3.1,12.9c-7.5,24.7-23.1,45.9-43.6,60.5
	c-19,13.5-42.2,21.5-67.2,21.5h-0.1c-21.1,0-40.9-5.7-58-15.6c-2.8-1.6-5.6-3.4-8.3-5.3c-12.3-8.6-22.8-19.5-31-32l30.2-30.6
	c0.2,0.5,0.5,1,0.8,1.5c12.5,24.1,37.7,40.5,66.7,40.5c29.1,0,54.3-16.5,66.8-40.7c2.1-4,3.8-8.3,5.2-12.7H13.3
	c-1.2-6.8-1.9-13.8-1.9-21c0-7.7,0.7-15.2,2.2-22.4c1-5.2,2.4-10.2,4-15.1c8-23.5,23.4-43.6,43.4-57.5
	c18.8-13.1,41.6-20.8,66.3-20.8c0.6,0,1.2,0,1.8,0c20.1,0.3,38.9,5.7,55.2,15c3.5,2,6.9,4.2,10.2,6.5c11.3,8,21,18,28.8,29.5
	l-28.8,29.4l-0.1,0.1C181.8,108.5,156.6,92,127.6,92c-29,0-54.2,16.4-66.7,40.5c-2.1,4.1-3.9,8.5-5.3,13h185.2
	C242.3,152.8,243.1,160.2,243.1,167.9z"/>
<g>
	<path class="st2" d="M163.5,56.6l-16.3,47.6c-1.6,4.8-6.2,8.1-11.3,8.1h-17.2c-5.1,0-9.6-3.2-11.3-8.1L91,56.1
		c-2.1-6,0.9-12.7,6.9-14.9c16.2-6.2,40.6-8.3,59.6,0.9C162.9,44.7,165.4,51,163.5,56.6z"/>
	<line class="st3" x1="115.5" y1="93.3" x2="137.8" y2="93.3"/>
</g>
<g>
	<path class="st2" d="M163.5,277.7l-16.3-47.6c-1.6-4.8-6.2-8.1-11.3-8.1h-17.2c-5.1,0-9.6,3.2-11.3,8.1L91,278.3
		c-2.1,6,0.9,12.7,6.9,14.9c16.2,6.2,40.6,8.3,59.6-0.9C162.9,289.7,165.4,283.4,163.5,277.7z"/>
	<line class="st4" x1="115.5" y1="241" x2="137.8" y2="241"/>
</g>
</svg>
