<?xml version="1.0"?>
<svg xmlns="http://www.w3.org/2000/svg" xmlns:xlink="http://www.w3.org/1999/xlink" xmlns:svgjs="http://svgjs.com/svgjs" version="1.1" width="512" height="512" x="0" y="0" viewBox="0 0 512 512" style="enable-background:new 0 0 512 512" xml:space="preserve" class=""><g><path xmlns="http://www.w3.org/2000/svg" d="m0 0h138.5v138.5h-138.5zm0 0" fill="#f2f2f2" data-original="#000000" style="" class=""/><path xmlns="http://www.w3.org/2000/svg" d="m373.5 0h138.5v138.5h-138.5zm0 0" fill="#f2f2f2" data-original="#000000" style="" class=""/><path xmlns="http://www.w3.org/2000/svg" d="m186.75 0h138.5v138.5h-138.5zm0 0" fill="#f2f2f2" data-original="#000000" style="" class=""/><path xmlns="http://www.w3.org/2000/svg" d="m0 186.75h138.5v138.5h-138.5zm0 0" fill="#f2f2f2" data-original="#000000" style="" class=""/><path xmlns="http://www.w3.org/2000/svg" d="m373.5 186.75h138.5v138.5h-138.5zm0 0" fill="#f2f2f2" data-original="#000000" style="" class=""/><path xmlns="http://www.w3.org/2000/svg" d="m186.75 186.75h138.5v138.5h-138.5zm0 0" fill="#f2f2f2" data-original="#000000" style="" class=""/><path xmlns="http://www.w3.org/2000/svg" d="m0 373.5h138.5v138.5h-138.5zm0 0" fill="#f2f2f2" data-original="#000000" style="" class=""/><path xmlns="http://www.w3.org/2000/svg" d="m373.5 373.5h138.5v138.5h-138.5zm0 0" fill="#f2f2f2" data-original="#000000" style="" class=""/><path xmlns="http://www.w3.org/2000/svg" d="m186.75 373.5h138.5v138.5h-138.5zm0 0" fill="#f2f2f2" data-original="#000000" style="" class=""/></g></svg>
